<?xml version="1.0" standalone="no"?>
<!DOCTYPE svg PUBLIC "-//W3C//DTD SVG 20010904//EN"
 "http://www.w3.org/TR/2001/REC-SVG-20010904/DTD/svg10.dtd">
<svg version="1.0" xmlns="http://www.w3.org/2000/svg"
 width="13" height="16" viewBox="0 0 13 16"
 preserveAspectRatio="xMidYMid meet">

<g transform="translate(0.000000,1080.000000) scale(0.100000,-0.100000)"
fill="#000000" stroke="none">
<path d="M6960 9170 c-8 -5 -46 -21 -85 -36 -172 -66 -363 -176 -465 -268
-113 -104 -195 -190 -275 -291 -48 -60 -102 -126 -120 -145 -33 -36 -145 -201
-145 -214 0 -4 -11 -22 -25 -40 -14 -18 -25 -36 -25 -40 0 -4 -10 -22 -23 -39
-37 -54 -54 -82 -116 -204 -18 -35 -37 -65 -42 -68 -5 -4 -9 -14 -9 -24 0 -10
-7 -24 -15 -31 -8 -7 -15 -19 -15 -28 0 -8 -6 -23 -13 -31 -15 -18 -89 -182
-91 -203 -1 -3 -4 -10 -8 -14 -5 -4 -8 -15 -8 -24 0 -10 -6 -23 -14 -29 -8 -6
-16 -22 -19 -34 -3 -12 -26 -75 -51 -140 -25 -66 -46 -129 -46 -142 0 -13 -3
-25 -7 -27 -9 -3 -53 -129 -53 -150 0 -7 -7 -26 -15 -41 -8 -15 -17 -45 -21
-65 -4 -20 -9 -41 -13 -47 -3 -5 -6 -14 -6 -20 -1 -5 -4 -17 -7 -25 -7 -18
-29 -99 -32 -120 -1 -9 -5 -20 -8 -25 -3 -6 -9 -26 -12 -45 -4 -19 -11 -44
-16 -55 -8 -17 -17 -48 -36 -120 -1 -5 -10 -35 -19 -65 -9 -30 -17 -62 -19
-70 -1 -9 -4 -20 -7 -25 -3 -6 -18 -49 -33 -98 -31 -98 -19 -90 -159 -107 -97
-12 -120 -22 -136 -57 -27 -59 7 -186 53 -197 12 -3 77 -1 146 4 68 5 125 8
126 7 10 -12 44 -85 44 -94 0 -44 200 -530 313 -761 l65 -133 25 108 c30 128
47 222 83 438 25 157 76 421 92 480 l8 30 444 47 c317 34 446 44 451 36 4 -6
5 -65 3 -132 -6 -185 -16 -998 -15 -1201 2 -304 5 -373 19 -387 6 -6 12 -22
12 -35 0 -13 5 -23 10 -23 6 0 10 -7 10 -15 0 -8 5 -15 10 -15 6 0 10 -6 10
-14 0 -8 30 -40 68 -71 79 -66 146 -90 294 -107 74 -8 128 -8 219 1 147 15
152 17 138 43 -53 100 -73 352 -66 853 7 489 52 1297 97 1745 5 52 11 124 14
160 4 36 24 245 46 465 23 220 44 428 47 463 l6 62 -58 0 c-91 0 -171 27 -201
66 -36 46 -71 154 -83 254 -13 104 -14 399 -1 497 17 132 77 211 208 276 86
41 88 42 213 45 96 3 134 0 162 -12 44 -18 47 -9 13 49 -57 97 -282 196 -589
260 -125 26 -201 31 -227 15z m-200 -833 c0 -12 -9 -110 -20 -217 -10 -107
-21 -226 -24 -265 -22 -281 -48 -661 -61 -880 -14 -254 -19 -339 -34 -617 -4
-76 -10 -140 -14 -144 -9 -9 -837 -97 -844 -90 -8 8 90 400 144 576 189 617
411 1104 651 1430 75 101 183 230 194 230 4 0 8 -10 8 -23z"/>
<path d="M6677 8206 c-268 -326 -534 -887 -725 -1531 -63 -209 -127 -463 -120
-470 2 -3 108 104 234 237 126 133 299 315 385 403 l156 160 7 110 c17 272 47
669 71 944 8 91 13 166 12 167 -1 1 -10 -8 -20 -20z"/>
<path d="M7455 8791 c-114 -41 -160 -79 -204 -171 l-26 -55 0 -265 c0 -287 11
-371 58 -455 33 -59 63 -70 192 -70 96 0 116 3 155 24 127 66 151 113 181 356
26 199 21 414 -11 516 -11 35 -20 72 -20 82 0 9 -9 26 -20 37 -18 18 -33 20
-137 20 -88 -1 -131 -5 -168 -19z"/>
<path d="M4293 8679 c-40 -11 -50 -41 -35 -102 13 -52 5 -97 -47 -258 -103
-323 -123 -402 -222 -909 -75 -383 -150 -836 -234 -1420 -36 -250 -70 -477
-75 -505 -6 -27 -24 -167 -40 -310 -17 -143 -48 -406 -70 -585 -83 -698 -90
-815 -52 -911 26 -65 76 -127 137 -169 102 -70 343 -119 524 -107 46 4 85 8
87 10 2 2 -4 19 -13 38 -38 75 -25 507 28 924 27 217 68 486 77 507 9 21 183
218 193 218 4 0 12 -24 18 -52 35 -167 168 -523 301 -808 211 -452 502 -912
639 -1010 97 -68 277 -86 421 -41 101 31 228 98 325 171 71 53 289 259 282
266 -2 2 -23 -4 -47 -12 -168 -59 -415 134 -677 526 -236 355 -529 949 -697
1415 l-62 170 -139 0 c-77 0 -146 4 -154 9 -7 5 -24 32 -37 60 -41 89 -28 202
29 239 15 10 64 21 118 27 50 6 95 13 100 16 8 5 52 141 82 254 8 30 36 126
61 214 26 87 45 160 43 162 -2 2 -74 -83 -160 -189 -86 -105 -171 -210 -190
-232 -18 -22 -85 -116 -147 -210 -63 -93 -115 -172 -117 -174 -14 -19 -3 50
57 354 215 1093 387 1821 448 1888 8 10 34 26 56 36 55 24 69 43 61 80 -15 69
-105 154 -259 244 -105 61 -210 102 -373 147 -150 41 -184 45 -240 29z"/>
<path d="M4544 4858 c-4 -13 -15 -34 -25 -47 -10 -13 -16 -27 -13 -32 3 -5 1
-9 -5 -9 -5 0 -19 -20 -31 -45 -12 -25 -26 -47 -31 -51 -5 -3 -9 -13 -9 -23 0
-10 -11 -28 -24 -40 -14 -13 -32 -39 -41 -57 -35 -73 -86 -573 -87 -849 -1
-181 0 -194 23 -244 l24 -53 57 7 c75 8 219 50 282 82 111 56 261 173 335 261
l41 50 -46 83 c-142 256 -296 606 -406 922 -12 37 -26 67 -30 67 -4 0 -10 -10
-14 -22z"/>
</g>
</svg>
